<?xml version="1.0" encoding="UTF-8"?>
<svg xmlns="http://www.w3.org/2000/svg" xmlns:xlink="http://www.w3.org/1999/xlink" width="25px" height="31px" viewBox="0 0 25 30" version="1.1">
<defs>
<radialGradient id="radial0" gradientUnits="userSpaceOnUse" cx="0" cy="0" fx="0" fy="0" r="1" gradientTransform="matrix(1.575525,0,0,1.526347,22.792601,5.980173)">
<stop offset="0" style="stop-color:rgb(50.196078%,39.607843%,87.843137%);stop-opacity:1;"/>
<stop offset="1" style="stop-color:rgb(31.764706%,16.862745%,83.137255%);stop-opacity:1;"/>
</radialGradient>
<linearGradient id="linear0" gradientUnits="userSpaceOnUse" x1="214.439" y1="303.482" x2="236.702" y2="409.505" gradientTransform="matrix(0.0596659,0,0,0.0578035,0,0)">
<stop offset="0" style="stop-color:rgb(32.156863%,17.254902%,83.529412%);stop-opacity:1;"/>
<stop offset="0.4397" style="stop-color:rgb(54.117647%,43.529412%,90.980392%);stop-opacity:1;"/>
</linearGradient>
<linearGradient id="linear1" gradientUnits="userSpaceOnUse" x1="231.673" y1="404.144" x2="297.805" y2="522.048" gradientTransform="matrix(0.0596659,0,0,0.0578035,0,0)">
<stop offset="0" style="stop-color:rgb(32.156863%,17.254902%,83.529412%);stop-opacity:1;"/>
<stop offset="0.4397" style="stop-color:rgb(54.117647%,43.529412%,90.980392%);stop-opacity:1;"/>
</linearGradient>
<radialGradient id="radial1" gradientUnits="userSpaceOnUse" cx="0" cy="0" fx="0" fy="0" r="1" gradientTransform="matrix(2.734614,-0.0120563,0.0124448,2.649256,16.763544,27.141908)">
<stop offset="0.034" style="stop-color:rgb(32.156863%,17.254902%,83.529412%);stop-opacity:1;"/>
<stop offset="0.9955" style="stop-color:rgb(54.117647%,43.529412%,90.980392%);stop-opacity:1;"/>
</radialGradient>
<linearGradient id="linear2" gradientUnits="userSpaceOnUse" x1="166.061" y1="303.491" x2="144.763" y2="409.709" gradientTransform="matrix(0.0596659,0,0,0.0578035,0,0)">
<stop offset="0" style="stop-color:rgb(32.156863%,17.254902%,83.529412%);stop-opacity:1;"/>
<stop offset="0.4397" style="stop-color:rgb(54.117647%,43.529412%,90.980392%);stop-opacity:1;"/>
</linearGradient>
<linearGradient id="linear3" gradientUnits="userSpaceOnUse" x1="146.739" y1="407.302" x2="147.246" y2="518.627" gradientTransform="matrix(0.0596659,0,0,0.0578035,0,0)">
<stop offset="0" style="stop-color:rgb(32.156863%,17.254902%,83.529412%);stop-opacity:1;"/>
<stop offset="0.4397" style="stop-color:rgb(54.117647%,43.529412%,90.980392%);stop-opacity:1;"/>
</linearGradient>
<radialGradient id="radial2" gradientUnits="userSpaceOnUse" cx="0" cy="0" fx="0" fy="0" r="1" gradientTransform="matrix(-2.998036,0.0132308,-0.0136571,-2.904455,8.868138,27.16896)">
<stop offset="0.034" style="stop-color:rgb(32.156863%,17.254902%,83.529412%);stop-opacity:1;"/>
<stop offset="0.9955" style="stop-color:rgb(54.117647%,43.529412%,90.980392%);stop-opacity:1;"/>
</radialGradient>
<radialGradient id="radial3" gradientUnits="userSpaceOnUse" cx="0" cy="0" fx="0" fy="0" r="1" gradientTransform="matrix(-8.408922,0.0371098,-0.0383055,-8.146447,13.079893,8.89763)">
<stop offset="0.4744" style="stop-color:rgb(62.745098%,54.509804%,90.980392%);stop-opacity:1;"/>
<stop offset="0.8618" style="stop-color:rgb(50.196078%,39.607843%,87.843137%);stop-opacity:1;"/>
</radialGradient>
<radialGradient id="radial4" gradientUnits="userSpaceOnUse" cx="0" cy="0" fx="0" fy="0" r="1" gradientTransform="matrix(-8.714289,0.0384575,-0.0396966,-8.442282,18.786456,9.175607)">
<stop offset="0.0933" style="stop-color:rgb(88.235294%,87.45098%,86.666667%);stop-opacity:1;"/>
<stop offset="0.6573" style="stop-color:rgb(100%,100%,100%);stop-opacity:1;"/>
</radialGradient>
<linearGradient id="linear4" gradientUnits="userSpaceOnUse" x1="54.1846" y1="217.159" x2="54.1846" y2="357.022" gradientTransform="matrix(0.0596659,0,0,0.0578035,0,0)">
<stop offset="0.3344" style="stop-color:rgb(59.215686%,50.196078%,90.196078%);stop-opacity:1;"/>
<stop offset="0.8488" style="stop-color:rgb(54.117647%,43.529412%,90.980392%);stop-opacity:1;"/>
</linearGradient>
<radialGradient id="radial5" gradientUnits="userSpaceOnUse" cx="0" cy="0" fx="0" fy="0" r="1" gradientTransform="matrix(1.550843,-0.00683734,0.00705764,1.502435,5.390776,12.60526)">
<stop offset="0" style="stop-color:rgb(50.196078%,39.607843%,87.843137%);stop-opacity:1;"/>
<stop offset="1" style="stop-color:rgb(31.764706%,16.862745%,83.137255%);stop-opacity:1;"/>
</radialGradient>
<radialGradient id="radial6" gradientUnits="userSpaceOnUse" cx="0" cy="0" fx="0" fy="0" r="1" gradientTransform="matrix(1.575811,0,0,1.526624,1.539678,19.944682)">
<stop offset="0" style="stop-color:rgb(50.196078%,39.607843%,87.843137%);stop-opacity:1;"/>
<stop offset="1" style="stop-color:rgb(31.764706%,16.862745%,83.137255%);stop-opacity:1;"/>
</radialGradient>
<radialGradient id="radial7" gradientUnits="userSpaceOnUse" cx="0" cy="0" fx="0" fy="0" r="1" gradientTransform="matrix(1.064139,-0.64927,0.670189,1.030924,10.090274,3.894)">
<stop offset="0" style="stop-color:rgb(50.196078%,39.607843%,87.843137%);stop-opacity:1;"/>
<stop offset="1" style="stop-color:rgb(31.764706%,16.862745%,83.137255%);stop-opacity:1;"/>
</radialGradient>
</defs>
<g id="surface1">
<path style=" stroke:none;fill-rule:nonzero;fill:rgb(54.117647%,43.529412%,90.980392%);fill-opacity:1;" d="M 16.972656 14.308594 L 16.945312 12.824219 C 18.875 12.792969 20.308594 12.238281 21.199219 11.175781 C 22.816406 9.25 22.25 6.253906 22.242188 6.222656 L 23.746094 5.945312 C 23.777344 6.09375 24.449219 9.652344 22.390625 12.113281 C 21.199219 13.53125 19.375 14.269531 16.972656 14.308594 Z M 16.972656 14.308594 "/>
<path style=" stroke:none;fill-rule:nonzero;fill:rgb(54.117647%,43.529412%,90.980392%);fill-opacity:1;" d="M 19.804688 6.320312 L 21.589844 7.761719 C 21.90625 8.015625 22.378906 7.972656 22.644531 7.667969 C 22.90625 7.359375 22.863281 6.902344 22.546875 6.644531 L 20.765625 5.207031 C 20.449219 4.949219 19.976562 4.992188 19.710938 5.300781 C 19.445312 5.609375 19.488281 6.066406 19.804688 6.320312 Z M 19.804688 6.320312 "/>
<path style=" stroke:none;fill-rule:nonzero;fill:rgb(54.117647%,43.529412%,90.980392%);fill-opacity:1;" d="M 24.292969 6.824219 L 24.9375 5.445312 C 25.105469 5.078125 24.933594 4.648438 24.550781 4.484375 C 24.171875 4.320312 23.726562 4.488281 23.558594 4.855469 L 22.902344 6.269531 Z M 24.292969 6.824219 "/>
<path style=" stroke:none;fill-rule:nonzero;fill:rgb(54.117647%,43.529412%,90.980392%);fill-opacity:1;" d="M 23.949219 6.078125 L 23.941406 3.996094 C 23.9375 3.59375 23.597656 3.269531 23.183594 3.269531 C 22.765625 3.273438 22.429688 3.601562 22.433594 4.003906 L 22.433594 5.554688 Z M 23.949219 6.078125 "/>
<path style=" stroke:none;fill-rule:nonzero;fill:rgb(54.117647%,43.529412%,90.980392%);fill-opacity:1;" d="M 23.058594 6.304688 L 22.5625 4.273438 C 22.464844 3.882812 22.0625 3.640625 21.65625 3.730469 C 21.253906 3.824219 21 4.214844 21.097656 4.609375 L 21.601562 6.675781 Z M 23.058594 6.304688 "/>
<path style=" stroke:none;fill-rule:nonzero;fill:url(#radial0);" d="M 22.777344 8.222656 C 23.648438 8.222656 24.355469 7.539062 24.355469 6.695312 C 24.355469 5.855469 23.648438 5.171875 22.777344 5.171875 C 21.910156 5.171875 21.203125 5.855469 21.203125 6.695312 C 21.203125 7.539062 21.910156 8.222656 22.777344 8.222656 Z M 22.777344 8.222656 "/>
<path style=" stroke:none;fill-rule:nonzero;fill:url(#linear0);" d="M 14.8125 23.523438 C 14.828125 22.238281 14.640625 19.628906 13.269531 17.441406 L 11.929688 18.230469 C 13.171875 20.210938 13.265625 22.527344 13.238281 23.535156 C 13.234375 23.621094 14.039062 23.695312 14.8125 23.523438 Z M 14.8125 23.523438 "/>
<path style=" stroke:none;fill-rule:nonzero;fill:rgb(32.156863%,17.254902%,83.529412%);fill-opacity:1;" d="M 13.238281 23.523438 L 14.476562 23.515625 L 15.636719 29.945312 L 13.144531 29.957031 C 12.957031 29.957031 12.8125 29.808594 12.824219 29.625 Z M 13.238281 23.523438 "/>
<path style=" stroke:none;fill-rule:nonzero;fill:url(#linear1);" d="M 18.292969 28.253906 C 18.507812 28.417969 18.503906 28.65625 18.488281 28.910156 L 18.433594 29.679688 C 18.425781 29.816406 18.300781 29.929688 18.160156 29.929688 L 15.5625 29.941406 C 15.402344 29.945312 15.277344 29.816406 15.289062 29.660156 L 15.308594 28.863281 C 15.328125 28.574219 15.226562 28.464844 14.996094 28.191406 C 14.597656 27.726562 13.421875 25.179688 13.535156 23.523438 L 14.8125 23.515625 C 14.898438 24.5 16.238281 26.6875 18.292969 28.253906 Z M 18.292969 28.253906 "/>
<path style=" stroke:none;fill-rule:nonzero;fill:url(#radial1);" d="M 18.484375 28.910156 C 18.496094 28.734375 18.5 28.566406 18.429688 28.421875 L 15.191406 28.4375 C 15.28125 28.566406 15.320312 28.675781 15.308594 28.863281 L 15.289062 29.660156 C 15.28125 29.816406 15.402344 29.941406 15.5625 29.941406 L 18.160156 29.929688 C 18.300781 29.929688 18.425781 29.816406 18.433594 29.679688 Z M 18.484375 28.910156 "/>
<path style=" stroke:none;fill-rule:nonzero;fill:url(#linear2);" d="M 7.96875 23.554688 C 7.941406 22.265625 8.105469 19.65625 9.457031 17.457031 L 10.804688 18.234375 C 9.578125 20.226562 9.507812 22.542969 9.546875 23.550781 C 9.550781 23.636719 8.746094 23.71875 7.96875 23.554688 Z M 7.96875 23.554688 "/>
<path style=" stroke:none;fill-rule:nonzero;fill:url(#linear3);" d="M 6.609375 28.738281 C 6.609375 28.566406 6.636719 28.414062 6.710938 28.164062 C 7.867188 25.09375 7.964844 23.546875 7.964844 23.546875 L 9.546875 23.539062 C 9.546875 23.539062 9.65625 25.058594 10.84375 28.117188 C 10.9375 28.335938 10.945312 28.535156 10.960938 28.71875 L 10.964844 29.699219 C 10.964844 29.847656 10.84375 29.96875 10.691406 29.972656 L 10.613281 29.972656 L 6.96875 29.988281 L 6.890625 29.988281 C 6.738281 29.988281 6.613281 29.867188 6.613281 29.71875 Z M 6.609375 28.738281 "/>
<path style=" stroke:none;fill-rule:nonzero;fill:url(#radial2);" d="M 6.609375 28.738281 C 6.609375 28.710938 6.613281 28.683594 6.613281 28.65625 C 6.621094 28.570312 6.660156 28.472656 6.855469 28.472656 L 10.753906 28.457031 C 10.894531 28.460938 10.9375 28.566406 10.953125 28.628906 C 10.957031 28.660156 10.957031 28.691406 10.960938 28.71875 L 10.96875 29.699219 C 10.96875 29.792969 10.917969 29.875 10.84375 29.921875 C 10.800781 29.953125 10.746094 29.96875 10.691406 29.96875 L 10.613281 29.972656 L 6.96875 29.988281 L 6.894531 29.988281 C 6.816406 29.988281 6.746094 29.957031 6.695312 29.910156 C 6.644531 29.859375 6.613281 29.792969 6.613281 29.71875 Z M 6.609375 28.738281 "/>
<path style=" stroke:none;fill-rule:nonzero;fill:url(#radial3);" d="M 18.792969 14.238281 C 19.339844 12.164062 18.972656 10.507812 18.972656 10.507812 L 19.476562 10.503906 L 19.488281 10.496094 C 18.75 6.691406 15.292969 3.820312 11.15625 3.839844 C 6.492188 3.859375 2.726562 7.539062 2.75 12.054688 C 2.769531 16.574219 6.566406 20.21875 11.230469 20.199219 C 14.910156 20.183594 18.03125 17.886719 19.171875 14.703125 C 19.203125 14.566406 19.199219 14.324219 18.792969 14.238281 Z M 18.792969 14.238281 "/>
<path style=" stroke:none;fill-rule:nonzero;fill:rgb(84.705882%,81.176471%,96.862745%);fill-opacity:1;" d="M 18.511719 16.128906 L 3.929688 16.195312 C 4.261719 16.730469 4.652344 17.226562 5.09375 17.675781 L 17.359375 17.621094 C 17.800781 17.167969 18.1875 16.667969 18.511719 16.128906 Z M 18.511719 16.128906 "/>
<path style=" stroke:none;fill-rule:nonzero;fill:rgb(31.764706%,16.862745%,83.137255%);fill-opacity:1;" d="M 14.023438 18.082031 L 16.761719 18.070312 L 16.75 15.722656 L 14.015625 15.734375 Z M 14.023438 18.082031 "/>
<path style=" stroke:none;fill-rule:nonzero;fill:rgb(100%,100%,100%);fill-opacity:1;" d="M 14.5 17.203125 C 14.480469 17.203125 14.464844 17.199219 14.453125 17.1875 C 14.441406 17.175781 14.433594 17.160156 14.433594 17.144531 C 14.433594 17.128906 14.441406 17.113281 14.453125 17.101562 C 14.464844 17.089844 14.480469 17.082031 14.5 17.082031 C 14.515625 17.082031 14.53125 17.089844 14.546875 17.101562 C 14.558594 17.113281 14.566406 17.128906 14.566406 17.144531 C 14.566406 17.160156 14.558594 17.175781 14.546875 17.1875 C 14.53125 17.199219 14.515625 17.203125 14.5 17.203125 Z M 14.5 17.203125 "/>
<path style=" stroke:none;fill-rule:nonzero;fill:rgb(100%,100%,100%);fill-opacity:1;" d="M 15.226562 17.191406 L 15.109375 17.191406 L 14.796875 16.71875 C 14.789062 16.707031 14.78125 16.691406 14.777344 16.679688 L 14.773438 16.679688 C 14.777344 16.691406 14.777344 16.722656 14.777344 16.769531 L 14.777344 17.191406 L 14.671875 17.191406 L 14.671875 16.546875 L 14.796875 16.546875 L 15.097656 17.007812 C 15.113281 17.027344 15.121094 17.042969 15.125 17.050781 C 15.121094 17.03125 15.121094 17.003906 15.121094 16.960938 L 15.121094 16.542969 L 15.226562 16.542969 Z M 15.226562 17.191406 "/>
<path style=" stroke:none;fill-rule:nonzero;fill:rgb(100%,100%,100%);fill-opacity:1;" d="M 15.734375 17.191406 L 15.371094 17.191406 L 15.367188 16.542969 L 15.71875 16.542969 L 15.71875 16.632812 L 15.476562 16.636719 L 15.476562 16.820312 L 15.703125 16.820312 L 15.703125 16.910156 L 15.476562 16.910156 L 15.476562 17.101562 L 15.734375 17.101562 Z M 15.734375 17.191406 "/>
<path style=" stroke:none;fill-rule:nonzero;fill:rgb(100%,100%,100%);fill-opacity:1;" d="M 16.253906 16.632812 L 16.066406 16.632812 L 16.070312 17.191406 L 15.960938 17.191406 L 15.960938 16.632812 L 15.773438 16.632812 L 15.773438 16.542969 L 16.253906 16.542969 Z M 16.253906 16.632812 "/>
<path style=" stroke:none;fill-rule:nonzero;fill:url(#radial4);" d="M 18.8125 14.238281 C 19.351562 12.1875 19 10.546875 18.992188 10.507812 L 10.230469 10.546875 C 10.230469 10.546875 9.679688 10.496094 9.683594 10.984375 C 9.683594 11.472656 9.710938 12.851562 9.71875 14.378906 C 9.71875 14.691406 9.984375 14.84375 10.195312 14.839844 C 10.195312 14.839844 18.59375 14.578125 18.8125 14.238281 Z M 18.8125 14.238281 "/>
<path style=" stroke:none;fill-rule:nonzero;fill:rgb(62.745098%,54.509804%,90.980392%);fill-opacity:1;" d="M 13.585938 14.265625 C 13.585938 14.265625 14.925781 13.226562 15.1875 13.035156 C 15.449219 12.84375 15.679688 12.832031 15.921875 13.03125 C 16.164062 13.230469 17.519531 14.25 17.519531 14.25 Z M 13.585938 14.265625 "/>
<path style=" stroke:none;fill-rule:nonzero;fill:rgb(31.764706%,16.862745%,83.137255%);fill-opacity:1;" d="M 19.136719 14.804688 C 19.136719 14.804688 19.386719 14.359375 18.8125 14.238281 C 18.8125 14.238281 10.199219 14.269531 10.199219 14.269531 C 9.996094 14.273438 9.738281 14.15625 9.714844 13.96875 C 9.71875 14.105469 9.71875 14.242188 9.71875 14.378906 C 9.71875 14.664062 9.9375 14.8125 10.136719 14.839844 C 10.15625 14.839844 10.175781 14.84375 10.195312 14.84375 L 10.785156 14.839844 Z M 19.136719 14.804688 "/>
<path style=" stroke:none;fill-rule:nonzero;fill:rgb(31.764706%,16.862745%,83.137255%);fill-opacity:1;" d="M 12.316406 13.480469 C 12.679688 13.472656 12.964844 12.988281 12.953125 12.390625 C 12.941406 11.796875 12.636719 11.324219 12.273438 11.328125 C 11.90625 11.335938 11.621094 11.824219 11.632812 12.417969 C 11.644531 13.011719 11.949219 13.488281 12.316406 13.480469 Z M 12.316406 13.480469 "/>
<path style=" stroke:none;fill-rule:nonzero;fill:rgb(31.764706%,16.862745%,83.137255%);fill-opacity:1;" d="M 18.273438 12.386719 C 18.277344 11.792969 17.988281 11.308594 17.625 11.304688 C 17.257812 11.300781 16.957031 11.777344 16.953125 12.371094 C 16.945312 12.964844 17.234375 13.449219 17.601562 13.453125 C 17.964844 13.457031 18.265625 12.980469 18.273438 12.386719 Z M 18.273438 12.386719 "/>
<path style=" stroke:none;fill-rule:nonzero;fill:rgb(50.196078%,39.607843%,87.843137%);fill-opacity:1;" d="M 12.285156 11.867188 C 12.417969 11.734375 12.601562 11.675781 12.777344 11.691406 C 12.882812 11.878906 12.949219 12.125 12.953125 12.390625 C 12.957031 12.5625 12.9375 12.71875 12.898438 12.863281 C 12.6875 12.921875 12.457031 12.871094 12.289062 12.710938 C 12.046875 12.480469 12.046875 12.101562 12.285156 11.867188 Z M 12.285156 11.867188 "/>
<path style=" stroke:none;fill-rule:nonzero;fill:rgb(50.196078%,39.607843%,87.843137%);fill-opacity:1;" d="M 17.601562 11.808594 C 17.734375 11.675781 17.917969 11.617188 18.09375 11.632812 C 18.207031 11.828125 18.277344 12.09375 18.273438 12.382812 C 18.269531 12.53125 18.25 12.675781 18.214844 12.800781 C 18.007812 12.863281 17.769531 12.8125 17.605469 12.652344 C 17.363281 12.421875 17.359375 12.042969 17.601562 11.808594 Z M 17.601562 11.808594 "/>
<path style=" stroke:none;fill-rule:nonzero;fill:url(#linear4);" d="M 0.695312 20.636719 C 0.652344 20.503906 -0.339844 17.347656 1.273438 14.964844 C 2.203125 13.589844 3.777344 12.777344 5.945312 12.550781 L 6.113281 14.0625 C 4.4375 14.234375 3.25 14.816406 2.585938 15.792969 C 1.378906 17.570312 2.183594 20.15625 2.191406 20.183594 Z M 0.695312 20.636719 "/>
<path style=" stroke:none;fill-rule:nonzero;fill:url(#radial5);" d="M 5.675781 14.613281 C 6.535156 14.613281 7.226562 13.941406 7.226562 13.109375 C 7.226562 12.28125 6.535156 11.609375 5.675781 11.609375 C 4.820312 11.609375 4.125 12.28125 4.125 13.109375 C 4.125 13.941406 4.820312 14.613281 5.675781 14.613281 Z M 5.675781 14.613281 "/>
<path style=" stroke:none;fill-rule:nonzero;fill:rgb(54.117647%,43.529412%,90.980392%);fill-opacity:1;" d="M 4.296875 19.332031 L 1.996094 19.035156 C 1.585938 18.984375 1.210938 19.261719 1.15625 19.65625 C 1.101562 20.054688 1.390625 20.417969 1.800781 20.472656 L 4.097656 20.769531 C 4.507812 20.820312 4.882812 20.542969 4.941406 20.144531 C 4.992188 19.75 4.707031 19.382812 4.296875 19.332031 Z M 4.296875 19.332031 "/>
<path style=" stroke:none;fill-rule:nonzero;fill:rgb(54.117647%,43.529412%,90.980392%);fill-opacity:1;" d="M 0.222656 21.222656 L 0.4375 22.722656 C 0.5 23.121094 0.882812 23.394531 1.292969 23.335938 C 1.703125 23.277344 1.988281 22.90625 1.929688 22.507812 L 1.707031 20.976562 Z M 0.222656 21.222656 "/>
<path style=" stroke:none;fill-rule:nonzero;fill:rgb(54.117647%,43.529412%,90.980392%);fill-opacity:1;" d="M 0.925781 21.675781 L 2.078125 23.433594 C 2.304688 23.773438 2.769531 23.875 3.117188 23.65625 C 3.46875 23.4375 3.570312 22.988281 3.347656 22.648438 L 2.492188 21.335938 Z M 0.925781 21.675781 "/>
<path style=" stroke:none;fill-rule:nonzero;fill:rgb(54.117647%,43.529412%,90.980392%);fill-opacity:1;" d="M 1.554688 21.023438 L 3.089844 22.488281 C 3.386719 22.769531 3.863281 22.765625 4.15625 22.480469 C 4.445312 22.191406 4.445312 21.730469 4.148438 21.449219 L 2.582031 19.960938 Z M 1.554688 21.023438 "/>
<path style=" stroke:none;fill-rule:nonzero;fill:url(#radial6);" d="M 1.574219 22.074219 C 2.445312 22.074219 3.152344 21.390625 3.152344 20.550781 C 3.152344 19.707031 2.445312 19.023438 1.574219 19.023438 C 0.707031 19.023438 0 19.707031 0 20.550781 C 0 21.390625 0.707031 22.074219 1.574219 22.074219 Z M 1.574219 22.074219 "/>
<path style=" stroke:none;fill-rule:nonzero;fill:rgb(54.117647%,43.529412%,90.980392%);fill-opacity:1;" d="M 11.023438 3.679688 L 9.417969 3.847656 L 9.460938 2.226562 L 10.613281 2.105469 Z M 11.023438 3.679688 "/>
<path style=" stroke:none;fill-rule:nonzero;fill:rgb(84.705882%,81.176471%,96.862745%);fill-opacity:1;" d="M 10.144531 2.40625 C 10.765625 2.285156 11.167969 1.695312 11.042969 1.09375 C 10.914062 0.488281 10.308594 0.101562 9.683594 0.222656 C 9.0625 0.34375 8.660156 0.933594 8.785156 1.539062 C 8.914062 2.140625 9.519531 2.53125 10.144531 2.40625 Z M 10.144531 2.40625 "/>
<path style=" stroke:none;fill-rule:nonzero;fill:url(#radial7);" d="M 11.746094 4.589844 C 11.820312 4.582031 11.871094 4.515625 11.855469 4.445312 C 11.6875 3.714844 10.972656 3.210938 10.1875 3.292969 C 9.40625 3.378906 8.824219 4.023438 8.824219 4.769531 C 8.824219 4.839844 8.886719 4.894531 8.960938 4.886719 Z M 11.746094 4.589844 "/>
</g>
</svg>
